<svg width="146" height="85" viewBox="0 0 146 85" fill="none" xmlns="http://www.w3.org/2000/svg">
<path d="M18.2002 28.0272C25.2836 26.0522 34.2175 27.8626 37.7991 29.0147C29.4422 29.0147 26.3581 30.7923 25.0647 31.4835C23.7714 32.1748 19.9909 35.0386 17.9017 36.2236C15.8125 37.4087 9.84326 39.9762 9.24634 39.1862C8.7688 38.5542 9.90958 36.9478 10.5397 36.2236C9.87642 36.5857 8.25147 37.4877 7.05763 38.1987C5.56533 39.0874 0.39202 41.655 0.0935591 41.1612C-0.204901 40.6675 0.69048 39.4825 3.5756 36.7174C6.46071 33.9523 9.34583 30.496 18.2002 28.0272Z" fill="black"/>
<path d="M101.508 9.2345C100.107 9.2345 99.4138 9.94325 99.2422 10.2976C99.5511 10.5103 100.993 10.5103 101.302 10.5103H101.302C101.611 10.5103 102.641 11.8923 104.804 11.786C106.534 11.701 107.31 10.7583 107.481 10.2976C107.687 10.2976 108.12 10.2551 108.202 10.085C107.996 9.2345 106.451 8.06506 104.907 7.95875C103.671 7.8737 102.126 8.77381 101.508 9.2345Z" fill="#A3A4A8"/>
<path d="M103.444 8.96286C103.736 8.66757 104.297 8.59375 104.541 8.59375C104.632 8.61836 104.834 8.68234 104.907 8.74139C104.998 8.81521 104.907 8.96286 104.815 9.1105C104.724 9.25814 104.175 9.33196 104.175 9.55343C104.175 9.77489 104.541 9.84871 104.815 9.84871C105.09 9.84871 105.364 9.77489 105.272 9.47961C105.181 9.18432 105.364 9.18432 105.455 9.18432C105.528 9.18432 106.034 9.57803 106.278 9.77489C106.065 10.021 105.437 10.5131 104.632 10.5131C103.627 10.5131 103.078 9.84871 103.078 9.62725C103.078 9.40578 103.078 9.33196 103.444 8.96286Z" fill="black"/>
<path d="M115.096 7.66189C113.894 6.60197 111.589 6.13316 110.587 6.03125C110.587 6.16714 110.625 6.47968 110.775 6.64274C110.963 6.84657 112.09 7.0504 112.654 7.25423C113.217 7.45806 113.123 7.96763 112.654 8.68104C112.184 9.39444 110.399 10.7193 109.93 11.0251C109.46 11.3308 108.802 12.1461 108.427 12.8596C108.126 13.4303 108.176 14.0486 108.239 14.2864C108.013 14.2048 107.832 14.3203 107.769 14.3883C107.675 14.4902 107.506 14.7756 107.581 15.1017C107.675 15.5093 110.399 17.4457 111.245 17.4457C112.09 17.4457 114.72 18.0572 115.002 18.1591C115.227 18.2407 115.534 18.1252 115.66 18.0572C115.753 16.9361 113.311 15.917 112.278 15.3055C111.451 14.8163 109.616 14.2864 108.802 14.0825C108.771 13.9466 108.727 13.5933 108.802 13.2672C108.896 12.8596 111.808 10.9232 112.466 10.4136C113.123 9.90402 114.438 9.39444 115.19 9.39444C115.791 9.39444 116.755 10.1418 117.162 10.5155C116.975 10.0059 116.298 8.7218 115.096 7.66189Z" fill="black"/>
<path d="M76.8489 27.9842C74.6729 31.2126 71.668 33.4633 70.4375 34.1852C72.4127 33.3977 76.8878 31.3307 78.9861 29.3622C81.6089 26.9014 82.8718 24.8344 85.3975 20.0115C87.4181 16.1531 90.7727 10.792 92.1975 8.59375C89.1861 9.77489 84.3289 15.2869 82.3861 18.2397C80.4432 21.1926 79.5689 23.9486 76.8489 27.9842Z" fill="black"/>
<path d="M100.523 26.9554C100.523 25.6614 100.782 24.9573 100.912 24.767C101.456 25.6804 102.11 26.0356 102.369 26.099C102.466 25.5599 102.605 24.2981 102.758 23.6252C102.952 22.7689 103.438 21.3417 104.215 20.1999C104.938 19.1377 106.158 17.7261 106.449 17.1552C106.682 16.6985 106.935 15.95 107.032 15.6328C107.615 16.1085 108.975 17.1552 109.752 17.5358C110.529 17.9164 111.177 18.1384 111.403 18.2018C111.047 18.9313 110.315 20.5805 110.238 21.3417C110.16 22.1028 110.011 22.5469 109.946 22.6737C110.043 22.2931 109.752 21.6271 109.558 21.6271C109.402 21.6271 109.363 21.8174 109.363 21.9125C109.441 22.3693 109.202 23.4983 109.072 24.0058C109.15 23.7013 108.716 22.8006 108.489 22.3883C108.489 22.6928 107.777 23.4666 107.421 23.8155C107.576 23.3588 107.421 22.9909 107.323 22.864L106.255 24.1961C106.255 23.6252 105.283 22.4834 105.089 22.4834C104.895 22.4834 104.312 22.9592 103.826 23.7204C103.438 24.3293 103.211 26.2576 103.146 27.1457C103.308 27.4628 103.826 28.4206 104.603 29.7146C105.381 31.0086 105.64 33.2351 105.672 34.1866C105.575 34.1549 105.361 34.0724 105.283 33.9963C105.186 33.9011 103.243 32.6642 102.078 31.3321C100.912 30.0001 100.523 28.5729 100.523 26.9554Z" fill="black"/>
<path d="M101.5 1.6516C99.6528 1.94065 99.2422 3.96401 99.2422 5.02387C99.2422 7.43263 100.577 8.39613 101.192 8.39613C101.808 8.39613 102.424 7.33627 104.58 7.04722C106.735 6.75817 108.275 8.68518 108.685 8.58883C109.096 8.49248 110.122 8.01073 110.122 6.85452C110.122 5.69832 108.48 3.86766 107.043 2.90416C105.606 1.94065 103.737 1.30169 101.5 1.6516Z" fill="#ED1F21"/>
<path d="M97.7129 2.11986C98.8555 1.12824 100.7 0.857075 101.553 0.923537C102.498 0.923537 103.391 1.18939 103.719 1.32231C102.734 1.22262 101.159 1.32231 100.371 1.82078C99.652 2.27604 99.0647 3.40233 98.999 4.00049C98.8677 4.00049 98.4021 4.01403 97.7129 4.4128C97.0905 4.77289 96.0391 5.80851 96.0391 5.21035C96.0391 4.31311 96.3344 3.31618 97.7129 2.11986Z" fill="#ED1F21"/>
<path d="M118.98 53.0779C110.723 48.1774 95.553 42.2758 89 39.9375C102.958 46.9523 108.462 52.6827 111.608 55.7455C114.753 58.8083 115.806 61.5621 118.882 66.6135C122.912 73.2331 129.006 76.2959 130.579 75.2091C131.837 74.3397 131.824 72.0805 131.66 71.0595C132.479 72.2122 134.707 75.2289 137.066 78.0743C140.015 81.6311 143.849 84.8916 144.93 83.9036C146.011 82.9156 144.93 75.8019 140.605 69.9727C136.28 64.1435 129.301 59.2035 118.98 53.0779Z" fill="black"/>
<path d="M62.7562 28.4463C61.1606 28.894 58.7007 32.3633 57.6702 34.042C57.3045 34.6016 56.4934 35.8513 56.1743 36.3736C55.7754 37.0264 54.7781 38.9849 53.9803 38.6119C53.342 38.3134 54.1797 35.6897 54.6784 34.4151C53.8141 34.3529 52.2955 33.4626 53.7808 30.6846C55.058 28.2958 58.9224 24.8143 61.1749 23.096C61.3774 22.9102 61.5731 22.7634 61.759 22.6641C61.5805 22.7912 61.3847 22.936 61.1749 23.096C59.5513 24.5852 57.4894 28.5737 56.5732 30.5913C58.9666 28.7261 61.6925 28.3841 62.7562 28.4463Z" fill="#A3A4A8"/>
<path d="M35.2878 41.3963C31.1664 46.1725 28.1546 52.6516 27.1639 55.2942C24.0927 47.758 24.9843 45.3112 25.6778 45.5069C26.2326 45.6635 27.8904 47.7906 28.65 48.8346C28.4915 47.0337 29.1784 42.9296 29.5416 41.1027C30.037 38.7537 30.9947 37.775 31.5231 37.4814C31.424 37.775 31.5951 38.8874 31.6221 39.0473C31.7212 39.6346 32.0184 40.6133 32.2166 41.1027C32.4493 41.6774 32.7119 41.6899 32.811 41.3963C32.9184 41.0781 33.1443 39.4442 33.6591 37.4814C34.2185 35.348 34.8745 32.7529 35.5585 31.1802C35.567 31.158 35.5758 31.1378 35.585 31.1197C35.5761 31.1397 35.5673 31.1599 35.5585 31.1802C35.1978 32.1175 35.3892 36.6005 35.4859 36.6005C35.5652 36.6005 35.6511 36.47 35.6841 36.4048C36.3115 35.2303 37.7844 32.5095 38.6562 31.0218C39.746 29.1622 43.4117 24.2686 44.7987 22.8005C46.1857 21.3324 48.7616 19.4729 49.4551 20.3537C50.0099 21.0584 49.0918 22.931 48.5634 23.7793C49.1975 23.3095 51.3374 19.9949 52.3282 18.3963C52.4272 18.3636 53.0613 18.2005 54.805 17.809C56.9845 17.3197 58.0743 17.5154 58.2725 18.3963C58.4706 19.2771 54.7059 23.192 52.3282 24.758C49.9504 26.3239 40.4395 35.4261 35.2878 41.3963Z" fill="#808080"/>
</svg>
