<?xml version="1.0" encoding="UTF-8" standalone="no"?>
<!-- Created with Inkscape (http://www.inkscape.org/) -->

<svg
   xmlns:dc="http://purl.org/dc/elements/1.1/"
   xmlns:cc="http://creativecommons.org/ns#"
   xmlns:rdf="http://www.w3.org/1999/02/22-rdf-syntax-ns#"
   xmlns:svg="http://www.w3.org/2000/svg"
   xmlns="http://www.w3.org/2000/svg"
   xmlns:inkscape="http://www.inkscape.org/namespaces/inkscape"
   version="1.1"
   width="468.75"
   height="157.5"
   id="svg2"
   xml:space="preserve"><metadata
     id="metadata8"><rdf:RDF><cc:Work
         rdf:about=""><dc:format>image/svg+xml</dc:format><dc:type
           rdf:resource="http://purl.org/dc/dcmitype/StillImage" /></cc:Work></rdf:RDF></metadata><defs
     id="defs6" /><g
     transform="matrix(1.25,0,0,-1.25,0,157.5)"
     id="g10"><g
       transform="scale(0.1,0.1)"
       id="g12"><path
         d="m 560.512,520.98 c -28.992,9.329 -57.352,21.36 -85,36.008 -27.66,14.34 -53.672,31.84 -78.012,52.5 -24.34,21.024 -46.129,44.84 -65.469,71.492 -19.019,26.668 -34.691,55.348 -47.031,86.008 -12.301,30.66 -21.328,62.34 -26.988,95 -5.981,32.34 -9.141,64.84 -9.492,97.5 -0.36,32.66 1.48,65.352 5.5,98.012 2,16.33 4.5,32.5 7.5,48.48 3.011,16.01 7.152,32.85 12.5,50.5 0.32,0.35 3.48,-1.64 9.5,-5.97 6.011,-4.34 13.32,-11.18 21.992,-20.51 8.668,-9.34 17.187,-21.84 25.508,-37.5 8.32,-15.67 15.5,-34.85 21.48,-57.5 6.02,-22.66 10.66,-49.852 14.02,-81.52 3.32,-31.332 7.351,-67.968 12,-110 2.652,-20.98 6.832,-43.64 12.5,-67.968 5.351,-24.032 14.179,-49.852 26.48,-77.5 12.031,-28.012 29.691,-57.032 53.012,-87.032 23.359,-30.32 53.359,-60.32 90,-90"
         inkscape:connector-curvature="0"
         id="path14"
         style="fill:#3d7f35;fill-opacity:1;fill-rule:evenodd;stroke:none" /><path
         d="m 511.02,471.48 c -25.668,-4.332 -51.68,-6.64 -78.008,-6.992 -26.641,-0.347 -53.481,1.992 -80.512,6.992 -26.988,5.348 -53.32,13.829 -78.98,25.508 -25.668,11.992 -49.5,27.34 -71.489,46.024 C 180,561.328 160.352,581.988 143.012,605 c -16.992,23.32 -31.641,47.809 -43.9925,73.48 -12.3398,25.348 -22.6484,51.668 -31.0078,79.02 -3.9922,13.672 -7.6601,27.34 -10.9805,40.98 -3.0117,14.02 -5.5117,29.02 -7.5,45 0.3086,0.348 3.629,-0.32 10,-2 6.6407,-1.332 15.3086,-4.14 25.9805,-8.468 C 96.1719,828.32 107.699,821.328 120,811.988 132.34,803.012 145.199,790.66 158.52,775 c 13,-15.352 26.32,-34.18 40,-56.52 13.671,-22.66 30,-48.48 48.98,-77.5 9.691,-14.339 21.172,-29.339 34.531,-45 12.969,-15.32 29.649,-30.832 50,-46.492 20.309,-16.008 45.309,-30.66 75,-43.976 30,-13.684 64.649,-25 103.989,-34.032"
         inkscape:connector-curvature="0"
         id="path16"
         style="fill:#3d7f35;fill-opacity:1;fill-rule:evenodd;stroke:none" /><path
         d="M 455.512,378.012 C 421.172,361.641 384.34,350.512 345,344.488 c -38.98,-6.328 -78.828,-6.476 -119.488,-0.508 -40.313,6.329 -79.34,18.008 -116.992,35 -18.9888,8.36 -37.3481,18.008 -55.0005,29.032 -8.9883,5.66 -17.8593,11.476 -26.4883,17.5 C 18.3594,431.48 9.33984,438.672 0,446.988 c 0.351562,0.66 5.35156,3.832 15,9.492 9.6914,5.348 22.8516,10.668 39.5312,16.02 16.6407,5 35.3086,7.5 55.9808,7.5 16.008,-0.352 33.16,-3.012 51.519,-8.012 18.629,-5 39.649,-12.847 62.969,-23.508 11.68,-5.32 24.691,-11.332 39.02,-17.968 14.339,-6.371 30.511,-13.012 48.48,-20 18.012,-7.032 38.871,-13.364 62.5,-19.032 23.359,-5.968 50.199,-10.5 80.512,-13.468"
         inkscape:connector-curvature="0"
         id="path18"
         style="fill:#3d7f35;fill-opacity:1;fill-rule:evenodd;stroke:none" /><path
         d="m 441.02,289.488 c -15.668,-24.34 -34.848,-46.84 -57.5,-67.5 -23.008,-20.66 -49.848,-36.988 -80.508,-48.976 -30.981,-12.032 -63.481,-18.172 -97.5,-18.524 -16.992,-0.347 -33.992,0.821 -50.981,3.524 -8.672,1.316 -17.191,3.16 -25.511,5.468 -8.668,2.032 -17.848,4.84 -27.5,8.508 0,1.024 3.48,5.66 10.511,13.992 6.989,8.668 16.641,18.668 28.989,30 11.992,11.36 25.5,21.36 40.5,30 11.332,6.668 23.48,11.668 36.492,15 13.008,3.668 27.847,5.348 44.488,5 l 28.52,0 c 11.011,-0.32 23.511,-0.16 37.5,0.5 14.332,0.668 30.82,2.848 49.492,6.532 19.019,3.316 40,8.816 63.008,16.476"
         inkscape:connector-curvature="0"
         id="path20"
         style="fill:#3d7f35;fill-opacity:1;fill-rule:evenodd;stroke:none" /><path
         d="m 489.02,206.988 c -1.68,-18.668 -5.86,-36.988 -12.5,-55 -6.68,-18.008 -15,-35.347 -25,-51.988 -10.348,-16.3281 -21.829,-31.9883 -34.489,-46.9883 -6.371,-7.7031 -13.011,-15 -20,-22.0312 -6.679,-7 -14.531,-13.9922 -23.511,-20.9805 -0.36,0.3086 -2,4.3281 -5,11.9883 -3.008,7.6601 -5.821,17.5 -8.52,29.4922 -2.66,11.6797 -3.48,23.6679 -2.5,36.0195 0.66,9.3281 3.16,18.32 7.5,26.988 4.691,8.992 11.84,17.34 21.52,25 9.652,7.66 22.82,16.172 39.5,25.512 8.32,4.648 17.851,10.148 28.511,16.48 10.668,6.68 22.149,15.161 34.489,25.508"
         inkscape:connector-curvature="0"
         id="path22"
         style="fill:#45a842;fill-opacity:1;fill-rule:evenodd;stroke:none" /><path
         d="m 557.5,133.98 c 4.691,-18 6.02,-36.9917 4.02,-56.9917 -1.321,-10.3477 -3.668,-20.5078 -6.989,-30.5078 -3.359,-10 -8.871,-20.3086 -16.519,-30.9688 -0.313,0 -1.992,2.2969 -5,6.9883 -3.321,4.3281 -6.84,10 -10.512,16.9883 -3.98,6.6836 -7.5,13.5234 -10.469,20.5117 -2.031,5 -3.16,9.6484 -3.511,13.9805 -0.36,4.6914 1.011,9.3398 3.98,14.0312 3.012,4.3281 8.16,9.7969 15.512,16.4763 7.34,6.684 17.187,16.492 29.488,29.492"
         inkscape:connector-curvature="0"
         id="path24"
         style="fill:#3d7f35;fill-opacity:1;fill-rule:evenodd;stroke:none" /><path
         d="m 608.012,525.98 c 45.66,-2 90.508,0.661 134.488,8 44.34,7 86.52,19.032 126.52,36.02 40,17.648 76.492,39.648 109.5,65.98 16.679,13.348 32.34,27.5 46.99,42.5 7.34,7.692 14.33,15.348 21.01,23 5.98,7 11.49,14.5 16.49,22.5 10,16.02 17.5,32.848 22.5,50.508 5.35,17.66 8.01,35.352 8.01,53.012 0.35,18.012 -2.15,35 -7.5,50.98 -2.66,7.692 -5.82,15 -9.5,22.032 -3.67,5.968 -8,11.636 -13,16.988 -10.36,10.98 -22.66,19.648 -37,25.98 -14.68,6.36 -29.02,9.68 -43,10 -28.321,0.348 -53.68,-10.32 -76.02,-32 -0.309,0 -2.148,3.008 -5.469,9.032 -3.672,5.968 -5.859,15.148 -6.519,27.5 -0.313,5.968 0.66,12.968 3.008,20.968 2.339,7.661 6.992,16.02 13.98,25 7.031,9.03 17.5,17.5 31.52,25.51 13.992,8.01 32.152,13.32 54.5,16.02 22.34,2.3 47.34,-0.86 75,-9.53 27.34,-8.64 54.18,-25.67 80.5,-50.98 26.33,-29.02 43.17,-63.52 50.51,-103.52 7.31,-40 3.99,-82.152 -10,-126.48 -7.03,-21.68 -17.5,-43.172 -31.52,-64.488 -13.67,-21.371 -30.82,-40.864 -51.49,-58.524 -18.36,-16.008 -38.51,-31.168 -60.5,-45.508 -22.35,-14.652 -46.49,-27.808 -72.5,-39.492 C 952.5,535.309 924.691,525.98 895,518.98 865.66,511.641 835.199,506.988 803.52,505 c -63.989,-4.02 -129.18,3.012 -195.508,20.98"
         inkscape:connector-curvature="0"
         id="path26"
         style="fill:#f06330;fill-opacity:1;fill-rule:evenodd;stroke:none" /><path
         d="M 624.02,568.012 C 596.68,600 571.84,634.328 549.531,670.98 527.5,707.34 509.34,746.172 495,787.5 c -14.34,40.98 -22.809,83.828 -25.469,128.48 -2.34,44.68 2.149,89.17 13.481,133.51 6.008,23.67 15.148,46.02 27.5,66.99 12.34,21.33 27.34,40.67 45,58.01 17.34,17.34 36.988,32.34 59.019,45 21.641,12.66 45.469,22.15 71.489,28.52 12.652,3.32 26.32,5.31 41.011,5.97 13.989,0.35 27.66,-0.5 40.981,-2.5 27.34,-3.67 53.668,-12.34 79.019,-25.97 12.309,-7.03 24.34,-15.51 35.981,-25.51 11.328,-10.35 21.328,-21.99 30,-35 8.668,-13.01 15.347,-26.99 20,-41.99 4.687,-15 6.988,-30.51 6.988,-46.53 -0.309,-0.31 -3.629,0.67 -10,3.01 -6.641,2.66 -15.66,8.16 -26.988,16.49 -7.352,5.35 -15.981,11.67 -25.981,19.02 -10.351,6.99 -22.191,13.48 -35.511,19.49 -13.668,6.33 -29.18,10.66 -46.52,13.01 -12.969,2.34 -26.988,3.16 -41.988,2.5 -15,-0.35 -30,-3.01 -45,-8.01 -16.641,-5.35 -34.141,-13.98 -52.5,-26.01 -18.321,-12 -35.672,-28.17 -51.992,-48.48 -8.008,-10 -15,-21.17 -21.02,-33.52 -6.328,-12.34 -12.148,-27.34 -17.5,-45 -10.66,-33.671 -16.84,-71.992 -18.48,-115 -1.321,-43.32 4.14,-90.82 16.492,-142.5 12.648,-51.64 33.008,-106.171 61.008,-163.468"
         inkscape:connector-curvature="0"
         id="path28"
         style="fill:#f06330;fill-opacity:1;fill-rule:evenodd;stroke:none" /><path
         d="m 1417.58,604.02 -16.1,-18.442 0,-66.09 -30.31,0 0,262.5 30.31,0 0,-157.027 57.66,79.367 36.25,0 -58.91,-77.18 66.57,-107.66 -35.32,0 -50.15,84.532 z m 248.63,-31.399 27.97,131.707 30,0 -45.31,-184.84 -24.07,0 -36.09,132.34 -35.16,-132.34 -24.37,0 -44.84,184.84 29.68,0 28.75,-128.43 34.38,128.43 23.9,0 35.16,-131.707 z m 155.9,-56.57 c -23.05,0 -40.74,6.879 -53.13,20.629 -12.3,13.75 -18.55,33.898 -18.75,60.468 l 0,22.34 c 0,27.582 5.98,49.223 17.97,64.84 12.07,15.633 28.91,23.442 50.47,23.442 21.64,0 37.81,-6.872 48.44,-20.622 10.7,-13.75 16.17,-35.238 16.41,-64.378 l 0,-19.84 -103.13,0 0,-4.379 c 0,-19.801 3.67,-34.223 11.09,-43.281 7.5,-8.981 18.29,-13.442 32.35,-13.442 8.83,0 16.64,1.652 23.44,5 6.75,3.442 13.12,8.793 19.06,16.102 l 15.78,-19.219 c -13.13,-18.441 -33.13,-27.66 -60,-27.66 z m -3.44,165.777 c -12.62,0 -21.95,-4.328 -27.97,-12.957 -5.93,-8.562 -9.33,-21.883 -10.15,-40 l 72.81,0 0,4.059 c -0.86,17.582 -4.02,30.148 -9.53,37.648 -5.55,7.5 -13.91,11.25 -25.16,11.25 z m 147.81,-77.808 -16.09,-18.442 0,-66.09 -30.31,0 0,262.5 30.31,0 0,-157.027 57.66,79.367 36.25,0 -58.91,-77.18 66.56,-107.66 -35.31,0 -50.16,84.532 z M 2140,516.051 c -23.05,0 -40.74,6.879 -53.12,20.629 -12.31,13.75 -18.56,33.898 -18.76,60.468 l 0,22.34 c 0,27.582 5.98,49.223 17.97,64.84 12.07,15.633 28.91,23.442 50.47,23.442 21.64,0 37.82,-6.872 48.44,-20.622 10.7,-13.75 16.17,-35.238 16.41,-64.378 l 0,-19.84 -103.13,0 0,-4.379 c 0,-19.801 3.67,-34.223 11.1,-43.281 7.5,-8.981 18.28,-13.442 32.34,-13.442 8.83,0 16.64,1.652 23.44,5 6.75,3.442 13.12,8.793 19.06,16.102 L 2200,543.711 c -13.12,-18.441 -33.12,-27.66 -60,-27.66 z m -3.44,165.777 c -12.61,0 -21.95,-4.328 -27.97,-12.957 -5.93,-8.562 -9.33,-21.883 -10.15,-40 l 72.81,0 0,4.059 c -0.86,17.582 -4.02,30.148 -9.53,37.648 -5.55,7.5 -13.91,11.25 -25.16,11.25 z m 177.66,-5.777 c -4.18,0.82 -8.71,1.25 -13.6,1.25 -15.54,0 -26.36,-8.512 -32.5,-25.473 l 0,-132.34 -30.31,0 0,184.84 29.53,0 0.47,-18.75 c 8.01,14.774 19.46,22.192 34.38,22.192 4.76,0 8.75,-0.782 11.87,-2.34 l 0.16,-29.379 z m 62.89,-156.563 -30.16,0 0,184.84 30.16,0 0,-184.84 z m 2.5,233.91 c 0,-5.117 -1.49,-9.378 -4.38,-12.82 -2.81,-3.348 -7.14,-5 -12.96,-5 -5.75,0 -10,1.652 -12.82,5 -2.81,3.442 -4.22,7.703 -4.22,12.82 0,5.192 1.41,9.532 4.22,12.973 2.82,3.508 7.07,5.309 12.82,5.309 5.7,0 10.03,-1.84 12.96,-5.469 2.89,-3.563 4.38,-7.813 4.38,-12.813 z m 75.74,-49.07 0,-208.117 c -0.31,-34.262 -13.87,-51.41 -40.62,-51.41 -6.18,0 -11.68,1.058 -16.57,3.129 l -0.15,25.308 c 3.04,-0.937 6.91,-1.41 11.72,-1.41 5.19,0 9.06,1.961 11.56,5.793 2.58,3.75 3.91,10.391 3.91,19.84 l 0,206.867 30.15,0 z m 1.41,49.07 c 0,-5.117 -1.49,-9.378 -4.38,-12.82 -2.81,-3.348 -7.11,-5 -12.81,-5 -5.74,0 -10,1.652 -12.81,5 -2.81,3.442 -4.22,7.703 -4.22,12.82 0,5.192 1.41,9.532 4.22,12.973 2.81,3.508 7.03,5.309 12.65,5.309 5.71,0 10.04,-1.84 12.97,-5.469 2.89,-3.563 4.38,-7.813 4.38,-12.813 z m 185.58,-119.218 -24.37,-29.532 0,-85.16 -31.25,0 0,248.91 31.25,0 0,-120.16 20.47,27.192 67.03,92.968 37.65,0 -80.93,-109.687 87.19,-139.223 -37.5,0 -69.54,114.692 z m 119.69,-13.75 c 0,26.949 6.49,48.281 19.53,63.898 13.01,15.633 30.24,23.442 51.72,23.442 21.45,0 38.67,-7.649 51.72,-22.969 13.01,-15.231 19.69,-35.93 20,-62.18 l 0,-19.543 c 0,-26.789 -6.52,-47.957 -19.53,-63.59 -12.93,-15.617 -30.24,-23.437 -51.88,-23.437 -21.36,0 -38.55,7.539 -51.56,22.66 -12.93,15.187 -19.61,35.699 -20,61.559 l 0,20.16 z m 30.31,-17.352 c 0,-19.058 3.68,-34.058 11.1,-45 7.5,-10.848 17.54,-16.25 30.15,-16.25 26.64,0 40.39,19.262 41.25,57.82 l 0,20.782 c 0,18.941 -3.82,33.898 -11.4,44.84 -7.5,11.019 -17.58,16.558 -30.16,16.558 -12.42,0 -22.34,-5.539 -29.84,-16.558 -7.42,-10.942 -11.1,-25.782 -11.1,-44.532 l 0,-17.66 z m 241.61,-36.25 c 0,6.453 -2.47,12.043 -7.35,16.723 -4.92,4.687 -14.37,10.16 -28.44,16.41 -16.25,6.758 -27.73,12.539 -34.37,17.34 -6.68,4.769 -11.68,10.199 -15,16.25 -3.36,6.14 -5,13.437 -5,21.879 0,15 5.47,27.422 16.41,37.34 11.01,10 25.07,15 42.18,15 18.01,0 32.5,-5.27 43.44,-15.782 10.94,-10.429 16.41,-23.828 16.41,-40.16 l -30,0 c 0,8.211 -2.82,15.242 -8.44,21.102 -5.55,5.941 -12.66,8.898 -21.41,8.898 -8.86,0 -15.86,-2.34 -20.93,-7.027 -5,-4.61 -7.5,-10.742 -7.5,-18.43 0,-6.18 1.79,-11.101 5.46,-14.851 3.75,-3.75 12.7,-8.711 26.88,-14.84 22.38,-8.75 37.58,-17.352 45.62,-25.782 8.13,-8.359 12.19,-18.988 12.19,-31.878 0,-16.051 -5.55,-28.899 -16.56,-38.59 -11.06,-9.61 -25.86,-14.379 -44.38,-14.379 -19.29,0 -34.92,5.508 -46.87,16.57 -11.99,11.008 -17.97,25.027 -17.97,42.027 l 30.47,0 c 0.31,-10.238 3.44,-18.25 9.37,-24.07 5.94,-5.848 14.26,-8.75 25,-8.75 10,0 17.58,2.231 22.82,6.723 5.31,4.57 7.97,10.668 7.97,18.277 z m 108.98,182.352 0,-44.852 27.81,0 0,-24.367 -27.81,0 0,-114.691 c 0,-7.301 1.17,-12.809 3.59,-16.559 2.39,-3.75 6.49,-5.633 12.35,-5.633 3.94,0 8.01,0.672 12.18,2.043 l -0.46,-25.633 c -6.8,-2.258 -13.75,-3.437 -20.94,-3.437 -11.99,0 -21.1,4.258 -27.35,12.82 -6.25,8.508 -9.37,20.617 -9.37,36.25 l 0,114.84 -28.28,0 0,24.367 28.28,0 0,44.852 30,0 z M 3273.4,516.051 c -23.05,0 -40.74,6.879 -53.13,20.629 -12.3,13.75 -18.55,33.898 -18.75,60.468 l 0,22.34 c 0,27.582 5.98,49.223 17.97,64.84 12.07,15.633 28.91,23.442 50.47,23.442 21.64,0 37.81,-6.872 48.44,-20.622 10.7,-13.75 16.17,-35.238 16.4,-64.378 l 0,-19.84 -103.12,0 0,-4.379 c 0,-19.801 3.67,-34.223 11.09,-43.281 7.5,-8.981 18.28,-13.442 32.35,-13.442 8.83,0 16.64,1.652 23.43,5 6.76,3.442 13.13,8.793 19.07,16.102 l 15.78,-19.219 c -13.13,-18.441 -33.13,-27.66 -60,-27.66 z m -3.44,165.777 c -12.62,0 -21.95,-4.328 -27.97,-12.957 -5.94,-8.562 -9.33,-21.883 -10.15,-40 l 72.81,0 0,4.059 c -0.86,17.582 -4.03,30.148 -9.53,37.648 -5.55,7.5 -13.91,11.25 -25.16,11.25 z m 133.91,-162.34 -30.16,0 0,262.5 30.16,0 0,-262.5 z m 79.29,0 -30.15,0 0,184.84 30.15,0 0,-184.84 z m 2.5,233.91 c 0,-5.117 -1.48,-9.378 -4.37,-12.82 -2.81,-3.348 -7.15,-5 -12.97,-5 -5.74,0 -10,1.652 -12.81,5 -2.81,3.442 -4.22,7.703 -4.22,12.82 0,5.192 1.41,9.532 4.22,12.973 2.81,3.508 7.07,5.309 12.81,5.309 5.7,0 10.04,-1.84 12.97,-5.469 2.89,-3.563 4.37,-7.813 4.37,-12.813 z m 75.75,-49.07 0,-208.117 c -0.32,-34.262 -13.87,-51.41 -40.63,-51.41 -6.17,0 -11.68,1.058 -16.56,3.129 l -0.16,25.308 c 3.05,-0.937 6.92,-1.41 11.72,-1.41 5.2,0 9.06,1.961 11.56,5.793 2.58,3.75 3.91,10.391 3.91,19.84 l 0,206.867 30.16,0 z m 1.4,49.07 c 0,-5.117 -1.48,-9.378 -4.37,-12.82 -2.82,-3.348 -7.11,-5 -12.82,-5 -5.74,0 -10,1.652 -12.81,5 -2.81,3.442 -4.22,7.703 -4.22,12.82 0,5.192 1.41,9.532 4.22,12.973 2.81,3.508 7.03,5.309 12.66,5.309 5.7,0 10.04,-1.84 12.97,-5.469 2.89,-3.563 4.37,-7.813 4.37,-12.813 z m 92.15,-149.378 -16.09,-18.442 0,-66.09 -30.32,0 0,262.5 30.32,0 0,-157.027 57.65,79.367 36.25,0 -58.9,-77.18 66.56,-107.66 -35.31,0"
         inkscape:connector-curvature="0"
         id="path30"
         style="fill:#3f8038;fill-opacity:1;fill-rule:nonzero;stroke:none" /><path
         d="m 2315.98,311.52 35.31,-110.309 35.31,110.309 21.88,0 0,-135.149 -17.03,0 0,52.649 1.56,52.66 -35.31,-105.309 -12.97,0 -35.16,105 1.56,-52.351 0,-52.649 -17.03,0 0,135.149 21.88,0 z m 152.26,-137.032 c -12.5,0 -22.11,3.672 -28.75,11.09 -6.68,7.5 -10.08,18.481 -10.15,32.973 l 0,12.027 c 0,15 3.2,26.723 9.68,35.16 6.57,8.524 15.67,12.813 27.35,12.813 11.75,0 20.54,-3.75 26.4,-11.25 5.82,-7.422 8.79,-19.02 8.91,-34.84 l 0,-10.781 -56.09,0 0,-2.352 c 0,-10.738 2.03,-18.547 6.09,-23.43 4.06,-4.918 9.88,-7.347 17.5,-7.347 4.77,0 8.98,0.859 12.66,2.66 3.75,1.867 7.22,4.769 10.46,8.75 l 8.6,-10.473 c -7.19,-10 -18.09,-15 -32.66,-15 z m -1.87,90 c -6.8,0 -11.84,-2.34 -15.16,-7.027 -3.24,-4.691 -5.08,-11.949 -5.47,-21.723 l 39.53,0 0,2.192 c -0.43,9.57 -2.15,16.398 -5.15,20.468 -3.05,4.063 -7.62,6.09 -13.75,6.09 z m 74.68,36.563 0,-24.371 15.16,0 0,-13.129 -15.16,0 0,-62.34 c 0,-3.981 0.63,-6.992 1.88,-9.063 1.33,-2 3.59,-2.968 6.72,-2.968 2.19,0 4.41,0.351 6.72,1.09 l -0.32,-13.899 c -3.67,-1.25 -7.46,-1.883 -11.4,-1.883 -6.49,0 -11.41,2.274 -14.85,6.883 -3.35,4.68 -5,11.277 -5,19.84 l 0,62.34 -15.31,0 0,13.129 15.31,0 0,24.371 16.25,0 z m 133.99,-110.621 48.44,0 0,-14.059 -67.19,0 0,12.649 45.94,73.601 -45.63,0 0,14.059 65,0 0,-12.032 -46.56,-74.218 z m 61.13,40.781 c 0,14.57 3.52,26.09 10.63,34.527 7.07,8.524 16.44,12.813 28.12,12.813 11.64,0 21.02,-4.18 28.13,-12.5 7.07,-8.242 10.66,-19.492 10.78,-33.75 l 0,-10.621 c 0,-14.489 -3.56,-26.02 -10.63,-34.532 -6.99,-8.437 -16.36,-12.66 -28.12,-12.66 -11.56,0 -20.9,4.102 -27.97,12.34 -6.99,8.211 -10.63,19.383 -10.94,33.442 l 0,10.941 z m 16.56,-9.531 c 0,-10.309 1.96,-18.442 5.94,-24.379 4.06,-5.86 9.53,-8.75 16.41,-8.75 14.45,0 21.91,10.39 22.34,31.25 l 0,11.41 c 0,10.187 -2.03,18.277 -6.09,24.219 -4.06,6.011 -9.53,9.058 -16.41,9.058 -6.8,0 -12.19,-3.047 -16.25,-9.058 -3.98,-5.942 -5.94,-13.989 -5.94,-24.059 l 0,-9.691 z m 121.8,39.691 c -2.3,0.391 -4.8,0.617 -7.5,0.617 -8.36,0 -14.22,-4.609 -17.65,-13.75 l 0,-71.867 -16.41,0 0,100.309 16.09,0 0.16,-10.16 c 4.37,8.011 10.62,12.031 18.75,12.031 2.58,0 4.73,-0.43 6.41,-1.25 l 0.15,-15.93 z m 10.16,-30.32 c 0,15.711 2.81,27.539 8.43,35.469 5.71,8.011 14.07,12.031 25,12.031 10.2,0 17.97,-4.332 23.29,-12.973 l 0.78,11.102 14.84,0 0,-101.25 c 0,-12.379 -3.2,-21.918 -9.53,-28.602 -6.37,-6.637 -15.23,-10 -26.56,-10 -5,0 -10.59,1.25 -16.72,3.75 -6.17,2.434 -10.78,5.402 -13.91,8.91 l 6.72,11.41 c 6.76,-6.636 14.26,-10 22.5,-10 13.75,0 20.78,7.461 21.09,22.34 l 0,13.133 c -5.31,-7.93 -12.89,-11.883 -22.65,-11.883 -10.31,0 -18.4,3.91 -24.22,11.723 -5.86,7.809 -8.87,19.059 -9.06,33.75 l 0,11.09 z m 16.4,-9.371 c 0,-11.25 1.61,-19.532 4.85,-24.852 3.32,-5.226 8.79,-7.808 16.4,-7.808 8.13,0 14.22,4.14 18.28,12.5 l 0,50.16 c -4.29,8.199 -10.31,12.34 -18.12,12.34 -7.62,0 -13.09,-2.649 -16.41,-7.969 -3.36,-5.231 -5,-13.36 -5,-24.371 l 0,-10 z m 118.01,9.371 c 0,15.711 2.81,27.539 8.44,35.469 5.7,8.011 14.06,12.031 25,12.031 10.19,0 17.97,-4.332 23.28,-12.973 l 0.78,11.102 14.85,0 0,-101.25 c 0,-12.379 -3.21,-21.918 -9.54,-28.602 -6.36,-6.637 -15.23,-10 -26.56,-10 -5,0 -10.58,1.25 -16.72,3.75 -6.17,2.434 -10.78,5.402 -13.9,8.91 l 6.72,11.41 c 6.75,-6.636 14.25,-10 22.5,-10 13.75,0 20.78,7.461 21.09,22.34 l 0,13.133 c -5.31,-7.93 -12.89,-11.883 -22.66,-11.883 -10.31,0 -18.4,3.91 -24.22,11.723 -5.86,7.809 -8.86,19.059 -9.06,33.75 l 0,11.09 z m 16.41,-9.371 c 0,-11.25 1.6,-19.532 4.84,-24.852 3.32,-5.226 8.79,-7.808 16.41,-7.808 8.12,0 14.22,4.14 18.28,12.5 l 0,50.16 c -4.3,8.199 -10.31,12.34 -18.13,12.34 -7.61,0 -13.08,-2.649 -16.4,-7.969 -3.36,-5.231 -5,-13.36 -5,-24.371 l 0,-10 z m 114.53,-47.192 c -12.5,0 -22.11,3.672 -28.75,11.09 -6.68,7.5 -10.08,18.481 -10.16,32.973 l 0,12.027 c 0,15 3.21,26.723 9.69,35.16 6.56,8.524 15.66,12.813 27.34,12.813 11.76,0 20.55,-3.75 26.41,-11.25 5.82,-7.422 8.79,-19.02 8.91,-34.84 l 0,-10.781 -56.1,0 0,-2.352 c 0,-10.738 2.03,-18.547 6.1,-23.43 4.06,-4.918 9.88,-7.347 17.5,-7.347 4.76,0 8.98,0.859 12.65,2.66 3.75,1.867 7.23,4.769 10.47,8.75 l 8.6,-10.473 c -7.19,-10 -18.09,-15 -32.66,-15 z m -1.88,90 c -6.79,0 -11.83,-2.34 -15.15,-7.027 -3.24,-4.691 -5.08,-11.949 -5.47,-21.723 l 39.53,0 0,2.192 c -0.43,9.57 -2.15,16.398 -5.16,20.468 -3.04,4.063 -7.61,6.09 -13.75,6.09 z m 78.44,-42.187 -8.75,-10 0,-35.93 -16.4,0 0,142.5 16.4,0 0,-85.32 31.25,43.129 19.69,0 -31.88,-41.879 36.1,-58.43 -19.22,0 -27.19,45.93 z m 133.24,-17.031 15.16,71.41 16.25,0 -24.69,-100.309 -12.97,0 -19.68,71.867 -19.07,-71.867 -13.12,0 -24.38,100.309 16.1,0 15.62,-69.692 18.6,69.692 12.96,0 19.22,-71.41 z m 81.88,-30.782 c -12.5,0 -22.11,3.672 -28.75,11.09 -6.68,7.5 -10.08,18.481 -10.16,32.973 l 0,12.027 c 0,15 3.21,26.723 9.69,35.16 6.56,8.524 15.66,12.813 27.34,12.813 11.76,0 20.55,-3.75 26.41,-11.25 5.82,-7.422 8.79,-19.02 8.91,-34.84 l 0,-10.781 -56.1,0 0,-2.352 c 0,-10.738 2.03,-18.547 6.1,-23.43 4.06,-4.918 9.88,-7.347 17.5,-7.347 4.76,0 8.98,0.859 12.65,2.66 3.75,1.867 7.23,4.769 10.47,8.75 l 8.6,-10.473 c -7.19,-10 -18.09,-15 -32.66,-15 z m -1.88,90 c -6.79,0 -11.83,-2.34 -15.15,-7.027 -3.24,-4.691 -5.08,-11.949 -5.47,-21.723 l 39.53,0 0,2.192 c -0.43,9.57 -2.15,16.398 -5.16,20.468 -3.04,4.063 -7.61,6.09 -13.75,6.09 z m 89.07,-90 c -12.5,0 -22.11,3.672 -28.75,11.09 -6.68,7.5 -10.08,18.481 -10.16,32.973 l 0,12.027 c 0,15 3.2,26.723 9.69,35.16 6.56,8.524 15.66,12.813 27.34,12.813 11.76,0 20.55,-3.75 26.41,-11.25 5.82,-7.422 8.79,-19.02 8.9,-34.84 l 0,-10.781 -56.09,0 0,-2.352 c 0,-10.738 2.03,-18.547 6.09,-23.43 4.07,-4.918 9.89,-7.347 17.5,-7.347 4.77,0 8.99,0.859 12.66,2.66 3.75,1.867 7.23,4.769 10.47,8.75 l 8.59,-10.473 c -7.18,-10 -18.08,-15 -32.65,-15 z m -1.88,90 c -6.8,0 -11.83,-2.34 -15.15,-7.027 -3.25,-4.691 -5.08,-11.949 -5.47,-21.723 l 39.53,0 0,2.192 c -0.43,9.57 -2.15,16.398 -5.16,20.468 -3.05,4.063 -7.62,6.09 -13.75,6.09 z m 78.44,-42.187 -8.75,-10 0,-35.93 -16.41,0 0,142.5 16.41,0 0,-85.32 31.25,43.129 19.69,0 -31.88,-41.879 36.1,-58.43 -19.22,0 -27.19,45.93 z m 79.76,78.75 0,-24.371 15.16,0 0,-13.129 -15.16,0 0,-62.34 c 0,-3.981 0.63,-6.992 1.88,-9.063 1.33,-2 3.59,-2.968 6.72,-2.968 2.19,0 4.41,0.351 6.72,1.09 l -0.32,-13.899 c -3.67,-1.25 -7.46,-1.883 -11.4,-1.883 -6.49,0 -11.41,2.274 -14.85,6.883 -3.36,4.68 -5,11.277 -5,19.84 l 0,62.34 -15.31,0 0,13.129 15.31,0 0,24.371"
         inkscape:connector-curvature="0"
         id="path32"
         style="fill:#f26531;fill-opacity:1;fill-rule:nonzero;stroke:none" /></g></g></svg>